<svg width="30" height="30" viewBox="0 0 30 30" fill="none" xmlns="http://www.w3.org/2000/svg">
<path fill-rule="evenodd" clip-rule="evenodd" d="M12.5 2.49999C12.5002 2.2393 12.419 1.98506 12.2676 1.77285C12.1161 1.56064 11.9022 1.40108 11.6556 1.3165C11.409 1.23191 11.1421 1.22654 10.8924 1.30113C10.6426 1.37572 10.4223 1.52654 10.2625 1.73249L1.51251 12.9825C1.34182 13.2019 1.24915 13.472 1.24915 13.75C1.24915 14.028 1.34182 14.2981 1.51251 14.5175L10.2625 25.7675C10.4223 25.9734 10.6426 26.1243 10.8924 26.1988C11.1421 26.2734 11.409 26.2681 11.6556 26.1835C11.9022 26.0989 12.1161 25.9393 12.2676 25.7271C12.419 25.5149 12.5002 25.2607 12.5 25V20.0125C19.2238 20.1525 22.4538 21.4287 24.0763 22.8162C25.6188 24.135 25.9013 25.6862 26.195 27.3112L26.2713 27.73C26.3274 28.0296 26.491 28.2984 26.7314 28.4858C26.9719 28.6733 27.2725 28.7664 27.5768 28.7476C27.881 28.7289 28.168 28.5996 28.3836 28.3841C28.5992 28.1686 28.7286 27.8817 28.7475 27.5775C28.9613 24.1425 28.64 19.165 26.2138 15.0012C23.8588 10.96 19.6175 7.85249 12.5 7.52749V2.49999Z" fill="#AEFFFF"/>
</svg>
